#!OML:ASF F:\VICON\USERDATA\INSTALL\rory3\rory3.ASF
:FULLY-SPECIFIED
:DEGREES
177
root 2.23685 17.2595 2.80982 -98.9722 -47.2896 121
lowerback 8.91385 -5.898 -2.05428
upperback -0.960886 -8.74017 -5.71504
thorax -6.60524 -4.45908 -3.55507
lowerneck -11.1726 -1.01006 3.07688
upperneck 43.5855 -11.927 8.62183
head 19.2529 -4.16039 1.02675
rclavicle -4.6118e-014 -1.00187e-013
rhumerus -2.96918 -44.0442 -50.4756
rradius 19.5044
rwrist 6.32835
rhand -25.6935 21.8844
rfingers 7.12502
rthumb 0.841764 -8.09371
lclavicle -4.6118e-014 -1.00187e-013
lhumerus -4.40564 -13.4246 35.0329
lradius 17.5856
lwrist -44.5384
lhand -3.13234 26.1395
lfingers 7.12502
lthumb 22.587 54.8381
rfemur -53.7981 -22.6498 2.91551
rtibia 39.5308
rfoot -56.2885 -37.0084
rtoes 44.0562
lfemur -22.9606 -7.18235 2.38954
ltibia 28.559
lfoot -55.5649 3.73278
ltoes 53.9326
178
root 2.20927 17.2813 2.7612 -100.749 -47.3818 122.936
lowerback 9.16192 -6.64894 -2.68853
upperback -1.66269 -9.77296 -4.79245
thorax -7.2801 -4.88876 -2.02592
lowerneck -10.4661 -0.113846 0.75796
upperneck 43.8328 -10.0316 8.88076
head 19.1856 -3.85068 1.94224
rclavicle 1.74931e-014 1.74931e-014
rhumerus -2.13261 -41.6953 -52.4441
rradius 18.5065
rwrist 8.18116
rhand -25.0658 22.1192
rfingers 7.12502
rthumb 1.44801 -7.85566
lclavicle 1.74931e-014 1.74931e-014
lhumerus -8.93534 -6.48838 35.4618
lradius 16.7726
lwrist -48.6518
lhand -3.26331 25.5687
lfingers 7.12502
lthumb 22.4612 54.2825
rfemur -52.8434 -20.0393 2.65559
rtibia 38.5974
rfoot -56.2371 -37.7209
rtoes 42.8719
lfemur -23.5461 -5.41731 0.898585
ltibia 29.3991
lfoot -53.6073 6.16011
ltoes 53.5798
179
root 2.17814 17.2846 2.71011 -102.342 -46.8395 124.575
lowerback 9.38862 -7.07283 -3.71584
upperback -2.31957 -10.4891 -4.37331
thorax -7.8751 -5.16253 -0.866323
lowerneck -10.1022 0.6346 -0.445894
upperneck 44.2558 -8.46928 8.51252
head 19.2027 -3.53702 2.28253
rclavicle -1.1609e-013 7.95139e-015
rhumerus -2.80925 -40.1935 -53.3229
rradius 17.8028
rwrist 10.3041
rhand -24.3072 21.6124
rfingers 7.12502
rthumb 2.18071 -8.35622
lclavicle -1.1609e-013 7.95139e-015
lhumerus -12.637 -1.67814 34.8522
lradius 16.3201
lwrist -51.3535
lhand -2.85294 25.0575
lfingers 7.12502
lthumb 22.8551 53.7232
rfemur -52.1223 -17.8839 1.95816
rtibia 37.923
rfoot -56.627 -37.5034
rtoes 43.6603
lfemur -24.0192 -3.90489 -1.24593
ltibia 29.9777
lfoot -51.6487 8.77058
ltoes 53.5638
180
root 2.14293 17.2836 2.65837 -103.676 -46.1424 125.967
lowerback 9.06934 -6.59136 -4.49409
upperback -2.5379 -9.92503 -4.29149
thorax -7.77943 -4.85135 -0.486004
lowerneck -10.3997 0.43821 -1.60868
upperneck 44.4468 -8.50896 8.58232
head 19.4689 -3.73538 2.5297
rclavicle -7.95139e-015 2.22639e-014
rhumerus -5.56972 -40.3929 -51.5519
rradius 17.8647
rwrist 11.2212
rhand -23.6167 21.1968
rfingers 7.12502
rthumb 2.84756 -8.7639
lclavicle -7.95139e-015 2.22639e-014
lhumerus -13.798 -0.103193 35.1515
lradius 16.1799
lwrist -52.3608
lhand -2.17705 24.8913
lfingers 7.12502
lthumb 23.5036 53.4755
rfemur -51.5492 -15.9364 1.15453
rtibia 37.4535
rfoot -57.7091 -36.7052
rtoes 44.9838
lfemur -24.6719 -2.82899 -3.56959
ltibia 30.4755
lfoot -49.9232 11.1431
ltoes 53.3834
181
root 2.11091 17.2838 2.60703 -105.075 -45.8737 127.468
lowerback 8.74743 -6.04177 -4.72247
upperback -2.65967 -9.2586 -4.68529
thorax -7.76757 -4.53899 -0.900172
lowerneck -10.2664 -0.00656686 -1.21591
upperneck 44.1321 -9.38171 8.7735
head 19.3248 -4.00441 2.37218
rclavicle -4.21423e-014 2.38542e-014
rhumerus -9.43985 -41.6978 -49.827
rradius 17.9836
rwrist 12.5201
rhand -22.9087 20.8542
rfingers 7.12502
rthumb 3.53125 -9.09626
lclavicle -4.21423e-014 2.38542e-014
lhumerus -14.3608 -1.68633 34.6611
lradius 16.2691
lwrist -50.9834
lhand -1.80374 25.3479
lfingers 7.12502
lthumb 23.8616 53.8857
rfemur -51.1204 -14.0723 0.956196
rtibia 37.1353
rfoot -58.5068 -36.5158
rtoes 45.6344
lfemur -25.4306 -2.24993 -5.27007
ltibia 30.9751
lfoot -47.3707 14.8588
ltoes 53.3629
182
root 2.08008 17.277 2.55714 -106.611 -45.8544 129.08
lowerback 8.64597 -6.04752 -5.15012
upperback -2.89992 -9.26703 -4.22447
thorax -7.82018 -4.49589 -0.194047
lowerneck -10.3077 0.0348554 -2.17898
upperneck 43.8927 -8.92754 8.80523
head 19.1628 -3.99122 2.63923
rclavicle -6.20208e-014 -1.59028e-014
rhumerus -10.7784 -41.6998 -49.0186
rradius 17.3702
rwrist 13.8781
rhand -22.2498 20.6173
rfingers 7.12502
rthumb 4.16754 -9.32169
lclavicle -6.20208e-014 -1.59028e-014
lhumerus -16.5285 0.853416 34.0015
lradius 15.8226
lwrist -52.6212
lhand -2.35755 25.5943
lfingers 7.12502
lthumb 23.3304 54.2006
rfemur -50.6927 -12.1203 1.00673
rtibia 36.9101
rfoot -59.7297 -36.18
rtoes 46.5897
lfemur -26.1745 -1.85321 -6.56895
ltibia 31.4751
lfoot -44.5427 18.7948
ltoes 53.1916
183
root 2.04902 17.2538 2.50865 -108.13 -45.568 130.638
lowerback 8.59731 -6.0454 -5.78394
upperback -3.13117 -9.30074 -3.79475
thorax -7.86822 -4.45705 0.597263
lowerneck -10.7149 0.152036 -3.2028
upperneck 44.0005 -8.36032 8.67651
head 19.3081 -3.9523 2.86907
rclavicle 5.56597e-014 7.95139e-014
rhumerus -11.9457 -41.6103 -48.052
rradius 16.7255
rwrist 15.1307
rhand -21.7723 20.5307
rfingers 7.12502
rthumb 4.62862 -9.39871
lclavicle 5.56597e-014 7.95139e-014
lhumerus -18.8881 3.76707 32.9284
lradius 15.4779
lwrist -54.9659
lhand -2.9838 25.5031
lfingers 7.12502
lthumb 22.7295 54.1843
rfemur -50.3784 -10.3065 0.897082
rtibia 36.79
rfoot -61.1005 -35.2786
rtoes 47.5893
lfemur -26.9504 -1.17579 -8.16781
ltibia 31.9501
lfoot -42.2893 20.8456
ltoes 53.1963
184
root 2.01725 17.2275 2.45922 -109.653 -45.2271 132.174
lowerback 8.46724 -5.88346 -6.16278
upperback -3.35239 -9.13867 -3.76162
thorax -7.97828 -4.35415 0.80863
lowerneck -10.7538 0.165512 -3.43053
upperneck 44.0116 -8.21275 8.52202
head 19.3014 -3.9662 2.85658
rclavicle 1.08139e-013 -3.65764e-014
rhumerus -14.2727 -42.1608 -46.501
rradius 16.3085
rwrist 16.565
rhand -21.395 20.5908
rfingers 7.12502
rthumb 4.99291 -9.3304
lclavicle 1.08139e-013 -3.65764e-014
lhumerus -20.9306 3.70793 31.7802
lradius 15.861
lwrist -54.9782
lhand -2.49059 25.6102
lfingers 7.12502
lthumb 23.2028 54.2326
rfemur -50.1358 -8.58427 0.844459
rtibia 36.8056
rfoot -62.0801 -34.7156
rtoes 48.0782
lfemur -27.683 -0.27249 -9.85924
ltibia 32.3487
lfoot -40.5988 21.3446
ltoes 53.0025
185
root 1.98436 17.2119 2.42419 -110.752 -45.2948 133.501
lowerback 8.01709 -5.77824 -5.80276
upperback -3.50329 -8.93483 -3.80305
thorax -7.94989 -4.27829 0.50453
lowerneck -11.0374 0.11703 -3.2176
upperneck 44.083 -8.25377 8.26597
head 19.4042 -3.97797 2.67611
rclavicle 1.27222e-014 -7.63333e-014
rhumerus -16.9454 -43.3202 -44.5958
rradius 16.0624
rwrist 17.7578
rhand -20.588 19.8987
rfingers 7.12502
rthumb 5.7721 -10.0026
lclavicle 1.27222e-014 -7.63333e-014
lhumerus -22.5558 1.9291 31.0021
lradius 16.5516
lwrist -53.1504
lhand -1.82795 26.5205
lfingers 7.12502
lthumb 23.8384 55.0614
rfemur -50.1405 -7.14659 1.10813
rtibia 36.9273
rfoot -62.893 -34.7084
rtoes 48.2836
lfemur -28.9098 0.0498146 -11.0959
ltibia 32.7522
lfoot -39.0037 21.8929
ltoes 52.6969
